<?xml version="1.0" encoding="utf-8"?>
<!-- Generator: Adobe Illustrator 23.0.2, SVG Export Plug-In . SVG Version: 6.00 Build 0)  -->
<svg version="1.1" xmlns="http://www.w3.org/2000/svg" xmlns:xlink="http://www.w3.org/1999/xlink" x="0px" y="0px"
	 viewBox="0 0 595.28 595.28" style="enable-background:new 0 0 595.28 595.28;" xml:space="preserve">
<style type="text/css">
	.st0{display:none;}
	.st1{display:inline;}
</style>
<g id="Capa_1">
	<g>
		<path d="M146.95,281.5v63.66h-11.37v-70.63h-33.39v70.63H90.82v-70.63H57.43v70.63H46.06v-80.35h84.02L146.95,281.5z"/>
		<path d="M235.55,281.5v63.66h-50.08l-16.51-16.51v-14.68l16.51-16.51h38.89v-22.93h-44.39v-9.72h38.89L235.55,281.5z
			 M224.36,335.62v-28.98h-44.21v28.98H224.36z"/>
		<path d="M316.62,274.53h-42.19v70.63h-11.37v-80.35h48.06L328,281.5v63.66h-11.37V274.53z"/>
		<path d="M365.78,335.25h42.19v-70.44h11.37v80.35h-48.06l-16.88-16.88v-63.47h11.38V335.25z"/>
		<path d="M508.86,281.5v63.66h-50.08l-16.51-16.51v-14.68l16.51-16.51h38.89v-22.93h-44.39v-9.72h38.89L508.86,281.5z
			 M497.67,335.62v-28.98h-44.21v28.98H497.67z"/>
		<path d="M536.37,227.57h11.37v117.59h-11.37V227.57z"/>
	</g>
</g>
<g id="Capa_2" class="st0">
	<g class="st1">
		<path d="M196.81,274.31v64.1h-5.9v-59.9l-19.1,59.9h-10.5l-19.1-60v60h-5.9v-64.1h10.7l19.6,61.4l19.5-61.4H196.81z"/>
		<path d="M246.41,323.01h-28.1l-4.7,15.4h-6.6l20.7-64.1h9.8l20.6,64.1h-7L246.41,323.01z M244.61,317.41l-12.2-40l-12.3,40H244.61
			z"/>
		<path d="M313.11,274.31v64.1h-10.8l-27.9-60.5v60.5h-6.1v-64.1h11l27.7,60.1v-60.1H313.11z"/>
		<path d="M329.3,329.11v-54.8h6.5v58.4h31.3v-58.4h6.5v54.8l-9.3,9.3h-25.7L329.3,329.11z"/>
		<path d="M423.11,323.01H395l-4.7,15.4h-6.6l20.7-64.1h9.8l20.6,64.1h-7L423.11,323.01z M421.31,317.41l-12.2-40l-12.3,40H421.31z"
			/>
		<path d="M445,274.31h6.5v58.4h28.9v5.7H445V274.31z"/>
	</g>
</g>
<g id="Capa_3" class="st0">
	<g class="st1">
		<path d="M38.84,36.46v13.88H27.92l-3.6-3.6v-3.2l3.6-3.6h8.48v-5h-9.68v-2.12h8.48L38.84,36.46z M36.4,48.26v-6.32h-9.64v6.32
			H36.4z"/>
		<path d="M60,36.46v10.2l-3.68,3.68H44.84V24.71h2.48v8.12h9L60,36.46z M57.52,34.94h-10.2v13.24h10.2V34.94z"/>
		<path d="M79.96,46.66l-3.64,3.68h-7.44l-3.64-3.68v-10.2l3.64-3.64h7.44l3.64,3.64v2.36h-2.48v-3.88h-9.76v13.24h9.76V44.3h2.48
			V46.66z"/>
		<path d="M99.52,46.66l-3.64,3.68h-7.44l-3.64-3.68v-10.2l3.64-3.64h7.44l3.64,3.64v2.36h-2.48v-3.88h-9.76v13.24h9.76V44.3h2.48
			V46.66z M95.2,53.42v2.08l-2.08,2.04H91l-1.24-1.2v-0.56h3.48V53.1H90.2l1.76-1.76h1.16L95.2,53.42z"/>
		<path d="M119.48,24.71v25.64H108l-3.64-3.68v-10.2l3.64-3.64h9v-8.12H119.48z M117,48.18V34.94h-10.16v13.24H117z"/>
		<path d="M127.76,42.22v5.96h11.2v2.16h-10l-3.64-3.68v-10.2l3.64-3.64h7.48l3.68,3.64v5.76H127.76z M127.76,34.94v5.28h9.92v-5.28
			H127.76z"/>
		<path d="M159.76,41.38c0,4.82-3.94,8.76-8.76,8.76c-4.78,0-8.69-3.87-8.76-8.66v-0.2h1.28v0.1c0,4.11,3.37,7.44,7.48,7.44
			c4.11,0,7.48-3.33,7.48-7.44c0-4.14-3.37-7.48-7.48-7.48h-0.1v-1.28h0.2C155.89,32.66,159.76,36.56,159.76,41.38z M143.56,40.67
			l-1.28-0.13l0.03-0.17l1.28,0.13L143.56,40.67z M143.69,39.9l-1.28-0.24l0.03-0.2l1.28,0.27L143.69,39.9z M143.86,39.16l-1.21-0.4
			l0.07-0.17l1.21,0.37L143.86,39.16z M144.13,38.42l-1.18-0.5l0.1-0.2l1.18,0.54L144.13,38.42z M144.5,37.71l-1.15-0.64l0.1-0.17
			l1.11,0.64L144.5,37.71z M144.9,37.07l-1.04-0.77l0.1-0.17l1.04,0.77L144.9,37.07z M145.38,36.43l-0.94-0.84l0.13-0.13l0.94,0.84
			L145.38,36.43z M145.92,35.89l-0.84-0.98l0.13-0.13l0.88,0.98L145.92,35.89z M146.52,35.38l-0.74-1.04l0.17-0.1l0.74,1.04
			L146.52,35.38z M147.2,34.95l-0.64-1.11l0.17-0.1l0.64,1.11L147.2,34.95z M147.87,34.58l-0.5-1.18l0.17-0.07l0.54,1.18
			L147.87,34.58z M148.61,34.31l-0.4-1.25l0.2-0.07l0.37,1.25L148.61,34.31z M150.23,38.32v3.07h3.27v1.41h-3.27v3.07h-1.48v-8.99
			h4.85v1.45H150.23z M149.35,34.07l-0.27-1.25l0.2-0.03l0.27,1.25L149.35,34.07z M150.13,33.94l-0.13-1.28l0.2-0.03l0.13,1.28
			L150.13,33.94z"/>
		<path d="M177.4,32.82v21.24l-3.72,3.72h-10.24v-2.16h11.48v-5.28h-9l-3.64-3.68v-10.2l3.64-3.64H177.4z M174.92,48.18V34.94
			h-10.16v13.24H174.92z"/>
		<path d="M197.76,36.46v13.88h-2.48v-15.4h-9.2v15.4h-2.48V24.71h2.48v8.12h8L197.76,36.46z"/>
		<path d="M204.72,34.94h-3.12v-2.12h5.6v17.52h-2.48V34.94z M203.96,26.63h3.24v2.96h-3.24V26.63z"/>
		<path d="M216.92,54.06l-3.72,3.72h-4.28v-2.16h5.52V34.94h-3.12v-2.12h5.6V54.06z M213.68,26.63h3.24v2.96h-3.24V26.63z"/>
		<path d="M230.56,41.54h-4.96v8.8h-2.48V24.71h2.48v14.72h5.12l3.72-6.6h2.48l-4.32,7.64l5.12,9.88h-2.68L230.56,41.54z"/>
		<path d="M241.88,24.71h2.48v25.64h-2.48V24.71z"/>
		<path d="M272.56,36.46v13.88h-2.48v-15.4h-7.28v15.4h-2.48v-15.4h-7.28v15.4h-2.48V32.82h18.32L272.56,36.46z"/>
		<path d="M290.2,34.94H281v15.4h-2.48V32.82H289l3.68,3.64v13.88h-2.48V34.94z"/>
		<path d="M312.8,36.46v13.88h-2.48v-15.4h-9.2v15.4h-2.48V32.82h10.48L312.8,36.46z M301.72,29.75h-1.84l2.24-4.44h3.04l2.04,3.8
			l1.8-3.8h1.88l-2.24,4.44h-3.04l-2.04-3.76L301.72,29.75z"/>
		<path d="M322.04,50.34l-3.64-3.68v-10.2l3.64-3.64h7.84l3.64,3.64v10.2l-3.64,3.68H322.04z M320.88,34.94v13.24h10.16V34.94
			H320.88z"/>
		<path d="M354.48,36.46v10.2l-3.68,3.68h-9v7.44h-2.48V32.82h11.48L354.48,36.46z M352,34.94h-10.2v13.24H352V34.94z"/>
		<path d="M374.84,32.82v24.96h-2.48v-7.44h-9l-3.64-3.68v-10.2l3.64-3.64H374.84z M372.36,48.18V34.94H362.2v13.24H372.36z"/>
		<path d="M383.52,34.94v15.4h-2.48V32.82h9.68v2.12H383.52z"/>
		<path d="M394.04,48.18H405V42.5h-7.68l-3.56-3.56v-2.52l3.64-3.6h8.96v2.12h-10.12v5.52h7.68l3.56,3.56v2.72l-3.6,3.6h-9.84V48.18
			z"/>
		<path d="M415.84,34.94v13.24h6v2.16h-4.8l-3.68-3.68V34.94h-3v-2.12h3v-4.24h2.48v4.24h6v2.12H415.84z"/>
		<path d="M428.4,48.18h9.2V32.82h2.48v17.52H429.6l-3.68-3.68V32.82h2.48V48.18z"/>
		<path d="M459.79,32.82l-6.08,17.52h-3.56l-6.08-17.52h2.56l5.4,16.32l5.32-16.32H459.79z"/>
		<path d="M486.71,32.82l-5.32,17.52h-3.4l-3.8-15.84l-3.84,15.84H467l-5.32-17.52h2.48l4.68,16.2l3.72-16.2h3.36l3.8,16.2
			l4.64-16.2H486.71z"/>
		<path d="M501.23,50.34l-5-7.96l-5.08,7.96h-2.52l5.84-8.96l-5.44-8.56h2.72l4.68,7.4l4.64-7.4h2.52l-5.48,8.44l5.88,9.08H501.23z"
			/>
		<path d="M521.95,32.82v21.24l-3.76,3.72h-9.24v-2.16h10.52v-5.28h-8l-3.68-3.68V32.82h2.48v15.36h9.2V32.82H521.95z"/>
		<path d="M540.03,48.18v2.16h-12.92v-3.96l11.08-11.44h-11.08v-2.12h12.4v3.96l-11.08,11.4H540.03z"/>
		<path d="M39,92.18H27.76l-1.88,6.16h-2.64l8.28-25.64h3.92l8.24,25.64h-2.8L39,92.18z M38.28,89.94l-4.88-16l-4.92,16H38.28z"/>
		<path d="M65.08,87.7v6.96l-3.68,3.68H47.76V72.71H61l3.68,3.68v6l-2.44,2.44L65.08,87.7z M50.36,74.95v8.96h11.76v-8.96H50.36z
			 M62.52,86.18H50.36v9.92h12.16V86.18z"/>
		<path d="M88.12,94.62l-3.76,3.72h-9.92l-3.76-3.72v-18.2l3.76-3.72h9.92l3.76,3.72v3.04h-2.64v-4.48H73.32v21.08h12.16v-4.48h2.64
			V94.62z"/>
		<path d="M92.48,98.34v-2.28h2.76V74.99h-2.76v-2.28h16.36l3.8,3.72v18.2l-3.76,3.72H92.48z M97.84,74.99v21.08H110V74.99H97.84z"
			/>
		<path d="M134.16,96.06v2.28h-15.2V72.71h15.12v2.28h-12.52v9.32h11.72v2.28h-11.72v9.48H134.16z"/>
		<path d="M153.84,89.38c0,4.82-3.94,8.76-8.76,8.76c-4.78,0-8.69-3.87-8.76-8.66v-0.2h1.28v0.1c0,4.11,3.37,7.44,7.48,7.44
			c4.11,0,7.48-3.33,7.48-7.44c0-4.14-3.37-7.48-7.48-7.48h-0.1v-1.28h0.2C149.97,80.66,153.84,84.56,153.84,89.38z M137.64,88.67
			l-1.28-0.13l0.03-0.17l1.28,0.13L137.64,88.67z M137.77,87.9l-1.28-0.24l0.03-0.2l1.28,0.27L137.77,87.9z M137.94,87.16l-1.21-0.4
			l0.07-0.17l1.21,0.37L137.94,87.16z M138.21,86.42l-1.18-0.5l0.1-0.2l1.18,0.54L138.21,86.42z M138.58,85.71l-1.15-0.64l0.1-0.17
			l1.11,0.64L138.58,85.71z M138.98,85.07l-1.04-0.77l0.1-0.17l1.04,0.77L138.98,85.07z M139.46,84.43l-0.94-0.84l0.13-0.13
			l0.94,0.84L139.46,84.43z M139.99,83.89l-0.84-0.98l0.13-0.13l0.88,0.98L139.99,83.89z M140.6,83.38l-0.74-1.04l0.17-0.1
			l0.74,1.04L140.6,83.38z M141.27,82.95l-0.64-1.11l0.17-0.1l0.64,1.11L141.27,82.95z M141.95,82.58l-0.5-1.18l0.17-0.07l0.54,1.18
			L141.95,82.58z M142.69,82.31l-0.4-1.25l0.2-0.07l0.37,1.25L142.69,82.31z M144.31,86.32v3.07h3.27v1.41h-3.27v3.07h-1.48v-8.99
			h4.85v1.45H144.31z M143.43,82.07l-0.27-1.25l0.2-0.03l0.27,1.25L143.43,82.07z M144.21,81.94l-0.13-1.28l0.2-0.03l0.13,1.28
			L144.21,81.94z"/>
		<path d="M172.48,79.42v-4.44h-12.92v21.08h12.96v-8.92h-5.12v-2.2h7.68v9.68l-3.72,3.72h-10.68l-3.76-3.72v-18.2l3.76-3.72h10.68
			l3.72,3.72v3H172.48z"/>
		<path d="M199,72.71v25.64h-2.64V86.58h-12.52v11.76h-2.6V72.71h2.6v11.6h12.52v-11.6H199z"/>
		<path d="M204.36,96.06h4.32V74.99h-4.32v-2.28h11.32v2.28h-4.36v21.08h4.36v2.28h-11.32V96.06z"/>
		<path d="M233,72.71v21.92l-3.72,3.72h-6.36l-3.72-3.72V91.5h2.6v4.56h8.6V74.99h-8.56v-2.28H233z"/>
		<path d="M247.24,86.18h-5.16v12.16h-2.6V72.71h2.6v11.24h5.32l6.28-11.24h2.84l-6.96,12.28l7.72,13.36h-3.04L247.24,86.18z"/>
		<path d="M261.48,72.71h2.6v23.36h11.56v2.28h-14.16V72.71z"/>
		<path d="M304.36,72.71v25.64H302V74.39l-7.64,23.96h-4.2l-7.64-24v24h-2.36V72.71h4.28l7.84,24.56l7.8-24.56H304.36z"/>
		<path d="M328.76,72.71v25.64h-4.32l-11.16-24.2v24.2h-2.44V72.71h4.4l11.08,24.04V72.71H328.76z"/>
		<path d="M353.16,72.71v25.64h-4.32l-11.16-24.2v24.2h-2.44V72.71h4.4l11.08,24.04V72.71H353.16z M341.12,70.03h-2.08l2.24-3.4
			h3.52l2,2.72l1.84-2.72h2.08l-2.2,3.4h-3.56l-2.04-2.72L341.12,70.03z"/>
		<path d="M363.24,98.34l-3.76-3.72v-18.2l3.76-3.72h10.72l3.76,3.72v18.2l-3.76,3.72H363.24z M362.12,74.99v21.08h12.96V74.99
			H362.12z"/>
		<path d="M400.64,76.43v7.64l-3.72,3.72h-10.28v10.56h-2.6V72.71h12.88L400.64,76.43z M398.04,74.99h-11.4V85.5h11.4V74.99z"/>
		<path d="M424.12,76.43v18.2l-3.76,3.72h-4.12v6h-2.48v-6h-4.12l-3.76-3.72v-18.2l3.76-3.72h10.72L424.12,76.43z M421.48,74.99
			h-12.96v21.08h12.96V74.99z"/>
		<path d="M446.08,98.34l-4.2-11.36h-8.84v11.36h-2.6V72.71h13.68l3.68,3.68v6.76l-3.36,3.4l4.48,11.8H446.08z M433.04,84.7h12.16
			v-9.72h-12.16V84.7z"/>
		<path d="M467.12,79.42v-4.48h-11v9.28h10.28l3.68,3.68v6.68l-3.76,3.76h-9.48l-3.72-3.72v-3h2.6v4.48h11.76v-9.6H457.2l-3.68-3.72
			v-6.36l3.72-3.72H466l3.68,3.72v3H467.12z"/>
		<path d="M490.95,74.99h-7.52v23.36h-2.6V74.99h-7.56v-2.28h17.68V74.99z"/>
		<path d="M495.12,94.62V72.71h2.6v23.36h12.52V72.71h2.6v21.92l-3.72,3.72h-10.28L495.12,94.62z"/>
		<path d="M517.48,87.54h11.56v2.16h-11.56V87.54z"/>
		<path d="M43.68,120.71l-8.24,25.64h-3.92l-8.28-25.64h2.8l7.52,24.36l7.52-24.36H43.68z"/>
		<path d="M76.32,120.71l-5.92,25.64h-3.96l-5.52-23.92l-5.52,23.92h-3.96l-5.96-25.64h2.72l5.24,23.96l5.52-23.96h4.08l5.48,23.76
			l5.24-23.76H76.32z"/>
		<path d="M94.64,146.34l-6.76-12.32l-6.96,12.32h-2.6L86,132.86l-6.92-12.16h2.8l6.04,11.2l6.16-11.2h2.6l-6.8,12.24l7.56,13.4
			H94.64z"/>
		<path d="M111.16,136.58h-0.76v9.76h-2.6v-9.76h-0.72l-7.8-15.88h2.8l7.08,15.08l7.04-15.08h2.72L111.16,136.58z"/>
		<path d="M137.44,144.06v2.28h-15.88v-4.56l14.48-18.8H121.8v-2.28h15.4v4.36l-14.6,19H137.44z"/>
		<path d="M24.28,192.06h5.2v-21.08h-5.2v-2.28h7.8v23.36h5.2v2.28h-13V192.06z"/>
		<path d="M40.96,172.39l3.68-3.68h7.96l3.68,3.68v7.16l-3.72,3.76h-9v8.76h13.36v2.28H40.96v-9.56l3.76-3.76h9v-10.04H43.6v4.44
			h-2.64V172.39z"/>
		<path d="M76.92,183.7v6.96l-3.64,3.68h-8.36l-3.68-3.68v-3.04h2.56v4.44h10.52v-9.88h-7.76v-2.24h7.36v-8.96H64v4.44h-2.56v-3.04
			l3.68-3.68h7.76l3.64,3.68v6l-2.44,2.48L76.92,183.7z"/>
		<path d="M97.68,188.66h-3.8v5.68H91.4v-5.68H80.64v-4.4l9.2-15.56h2.64l-10.64,17.8h9.56v-10.76h2.48v10.76h3.8V188.66z"/>
		<path d="M104.08,170.99v7.68h8.32l3.72,3.72v8.28l-3.68,3.68h-8.36l-3.72-3.68v-3.08H103v4.48h10.56v-11.12h-12.04v-12.24h13.28
			v2.28H104.08z"/>
		<path d="M137.8,183.14v7.48l-3.72,3.72h-8.76l-3.72-3.72v-18.2l3.72-3.72h8.36l3.72,3.72v3h-2.6v-4.44h-10.6v8.48h9.96
			L137.8,183.14z M135.2,181.66h-11v10.4h11V181.66z"/>
		<path d="M156.68,168.71v5.52l-9.88,20.12h-2.68l11.6-23.36h-14.84v-2.28H156.68z"/>
		<path d="M161.6,178.38v-6l3.68-3.68h7.48l3.72,3.68v6l-2.28,2.24l3.08,3.08v6.96l-3.72,3.68h-9.08l-3.68-3.68v-6.96l3.04-3.08
			L161.6,178.38z M174.68,182.14H163.4v9.96h11.28V182.14z M173.88,170.95h-9.72v9h9.72V170.95z"/>
		<path d="M198.4,172.43v18.2l-3.72,3.72h-8.76l-3.72-3.72v-3h2.6v4.44h11v-8.48h-9.96l-3.64-3.68v-7.48l3.72-3.72h8.76
			L198.4,172.43z M195.8,181.38v-10.4h-11v10.4H195.8z"/>
		<path d="M208.64,194.34l-3.76-3.76v-18.16l3.72-3.72h8.8l3.72,3.72v18.2l-3.72,3.72H208.64z M207.48,170.99v21.08h11.04v-21.08
			H207.48z"/>
		<path d="M31,231.06l6.8-6.8v-5.32H26.84v4.48H24.2v-3l3.76-3.72h8.72l3.72,3.72v4.36l-6.8,6.8v3.76H31V231.06z M30.6,238.5H34
			v3.84h-3.4V238.5z"/>
		<path d="M54,235.74l-6.84,6.84v4.96h10.96v-4.56h2.64v3.04L57,249.78h-8.72l-3.72-3.76v-4l6.8-6.8v-3.4H54V235.74z M54.36,228.62
			H51v-3.8h3.36V228.62z"/>
		<path d="M65.8,238.5h3.36v3.84H65.8V238.5z M66.16,216.71h2.64v18.64h-2.64V216.71z"/>
		<path d="M75.64,224.82H79v3.8h-3.36V224.82z M76,231.82h2.64v17.96H76V231.82z"/>
		<path d="M97.76,242.34l-3.64-3.68v-10.2l3.64-3.64h7.84l3.64,3.64v10.2l-3.64,3.68H97.76z M96.6,226.94v13.24h10.16v-13.24H96.6z
			 M96.84,218.63H100v2.96h-3.16V218.63z M103.4,218.63h3.16v2.96h-3.16V218.63z"/>
		<path d="M129.6,228.5v10.16l-3.64,3.68h-7.8l-3.68-3.68v-10.2l3.64-3.64h7.8L129.6,228.5z M116.88,226.9v11.12l10.32-11.12H116.88
			z M127.2,240.26V229.1l-10.32,11.16H127.2z"/>
		<path d="M166.68,226.3v14.28l-3.36,3.4h-2.16l-1.56-1.56l-1.56,1.56h-5.12l-3.44-3.44v-2.8l3.44-3.4h5.6v-3.76h-7.4v-2.04h6.24
			l3.44,3.44v10h3.92v-17.36h-18.16v19.36l-2-2V226.3l3.44-3.44h15.24L166.68,226.3z M158.52,236.3h-6.72v5.64h6.72V236.3z"/>
		<path d="M172.52,223.63v-4.24l1.68-4.2h2l-1.56,4.2h1.56v4.24H172.52z M178,223.63v-4.24l1.68-4.2h2l-1.56,4.2h1.56v4.24H178z"/>
		<path d="M187.36,230.06h3.72v4.24h-3.72V230.06z"/>
		<path d="M212.32,231.78v6.88l-3.68,3.68h-3.48v4h-1.84v-4h-6.52v-2.16h6.52v-9.96h-3.52l-3.68-3.68v-6.16l3.68-3.68h3.52v-4h1.84
			v4h5.72v2.16h-5.72v9.2h3.48L212.32,231.78z M203.32,228.06v-9.2h-4.72v9.2H203.32z M209.84,230.22h-4.68v9.96h4.68V230.22z"/>
		<path d="M224.84,228.14h-4.92l-2.04-2.08v-7.32l2.04-2.04h4.92l2.04,2.04v7.32L224.84,228.14z M224.92,226.3v-7.8h-5.08v7.8
			H224.92z M222.4,236.62v5.72h-2.32v-6.36l14.6-14.28v-5H237v5.6L222.4,236.62z M238.48,232.98v7.32l-2.04,2.04h-4.92l-2.04-2.04
			v-7.32l2.04-2.08h4.92L238.48,232.98z M236.52,232.74h-5.08v7.8h5.08V232.74z"/>
		<path d="M269.2,240.1v2.24h-5.4l-3.84-3.8l-3.8,3.8h-8.32l-3.64-3.68v-7l3.28-3.28h2.32l-3-3v-5l3.68-3.68h4.64l3.68,3.68v2.6
			h-2.56v-4.04h-6.88v5.76l10.56,10.56l2.68-2.68v-2.96h2.56v3.72l-3.56,3.56l3.2,3.2H269.2z M258.32,236.86l-8.2-8.16l-3.4,3.36
			v8.04h8.36L258.32,236.86z"/>
		<path d="M271.56,249.78l12.68-36.67h1.92l-12.64,36.67H271.56z"/>
		<path d="M293.76,219.91v24.12l4.8,4.8v1.52h-1.8l-5.48-5.44v-25.88l5.48-5.44h1.8v1.52L293.76,219.91z"/>
		<path d="M307.36,219.03v25.88l-5.48,5.44h-1.8v-1.52l4.8-4.8v-24.12l-4.8-4.8v-1.52h1.8L307.36,219.03z"/>
		<path d="M313.88,225.46h15.84v2.2h-15.84V225.46z M313.88,231.26h15.84v2.2h-15.84V231.26z"/>
		<path d="M339.68,215.19v4.2l-1.68,4.24h-2l1.56-4.24H336v-4.2H339.68z"/>
		<path d="M348.8,238.1v4.24l-1.72,5h-2.12l1.64-5h-1.48v-4.24H348.8z"/>
		<path d="M357.92,238.1v4.24l-1.72,5h-2.12l1.64-5h-1.48v-4.24H357.92z M354.24,224.82h3.68v4.2h-3.68V224.82z"/>
		<path d="M363.4,238.1h3.68v4.24h-3.68V238.1z"/>
		<path d="M372.56,238.1h3.68v4.24h-3.68V238.1z M372.6,224.82h3.68v4.2h-3.68V224.82z"/>
		<path d="M380.44,231.54H392v2.16h-11.56V231.54z"/>
		<path d="M393.4,245.7h20v1.96h-20V245.7z"/>
	</g>
</g>
</svg>
